<?xml version="1.0" encoding="UTF-8" ?>
<!DOCTYPE svg PUBLIC "-//W3C//DTD SVG 1.1//EN" "http://www.w3.org/Graphics/SVG/1.1/DTD/svg11.dtd">
<svg width="624pt" height="738pt" viewBox="0 0 624 738" version="1.1" xmlns="http://www.w3.org/2000/svg">
<g id="#ffffffff">
</g>
<g id="#aaaaaaff">
<path fill="#aaaaaa" opacity="1.00" d=" M 535.22 85.68 C 538.65 87.66 542.07 89.69 545.62 91.48 C 556.17 95.39 567.08 98.88 577.49 102.83 L 576.92 103.76 C 540.16 165.41 503.47 227.10 466.76 288.78 C 454.26 309.99 441.41 331.00 429.14 352.34 C 429.41 351.00 429.72 349.66 429.87 348.30 C 429.91 347.81 430.00 346.82 430.05 346.33 C 432.93 342.43 434.38 337.74 436.22 333.31 C 469.20 250.76 502.31 168.26 535.22 85.68 Z" />
<path fill="#aaaaaa" opacity="1.00" d=" M 290.74 589.80 C 328.60 525.50 366.81 461.39 404.39 396.92 L 404.57 398.50 C 374.75 469.99 344.86 541.45 315.02 612.93 C 309.61 626.06 303.93 639.08 298.70 652.28 L 298.18 652.67 C 286.55 647.12 274.93 641.56 263.18 636.29 C 263.31 635.60 263.56 634.97 263.95 634.40 C 273.16 619.71 281.88 604.71 290.74 589.80 Z" />
</g>
<g id="#0072bbff">
<path fill="#0072bb" opacity="1.00" d=" M 466.76 288.78 C 503.47 227.10 540.16 165.41 576.92 103.76 C 576.53 155.84 576.86 207.93 576.75 260.02 C 576.80 384.65 576.64 509.27 576.83 633.90 C 548.72 626.38 521.40 615.87 495.63 602.33 C 469.46 587.74 444.52 569.85 425.65 546.32 C 402.82 518.99 391.00 482.50 394.43 446.96 C 395.24 436.94 396.63 426.92 399.30 417.22 C 401.05 408.79 404.52 400.87 407.14 392.71 C 405.71 393.69 405.46 395.61 404.39 396.92 C 366.81 461.39 328.60 525.50 290.74 589.80 C 281.88 604.71 273.16 619.71 263.95 634.40 C 269.06 618.78 272.90 602.52 272.75 585.99 C 273.19 563.36 265.61 540.86 252.25 522.68 C 244.71 511.45 234.65 502.28 224.45 493.52 C 192.57 469.05 154.62 453.77 116.00 443.53 C 102.42 439.83 88.66 436.86 74.86 434.12 C 65.77 432.42 56.46 431.63 47.44 429.81 C 47.57 325.53 47.47 221.24 47.50 116.96 C 47.41 114.39 47.74 111.78 47.24 109.24 C 59.26 111.04 71.46 111.75 83.53 113.28 C 136.75 119.59 189.79 128.47 241.53 142.58 C 274.38 151.66 306.59 163.40 336.94 179.00 C 355.73 189.59 374.46 200.85 390.15 215.81 C 399.93 224.43 408.13 234.71 415.39 245.52 C 429.59 267.73 436.50 294.71 434.00 321.02 C 433.21 328.73 431.93 336.39 430.24 343.95 C 429.85 345.42 428.09 347.05 429.87 348.30 C 429.72 349.66 429.41 351.00 429.14 352.34 C 441.41 331.00 454.26 309.99 466.76 288.78 Z" />
</g>
</svg>
