<?xml version="1.0" standalone="no"?>
<!DOCTYPE svg PUBLIC "-//W3C//DTD SVG 20010904//EN"
 "http://www.w3.org/TR/2001/REC-SVG-20010904/DTD/svg10.dtd">
<svg version="1.0" xmlns="http://www.w3.org/2000/svg"
 width="1200.000000pt" height="1045.000000pt" viewBox="0 0 1200.000000 1045.000000"
 preserveAspectRatio="xMidYMid meet">

<g transform="translate(0.000000,1045.000000) scale(0.100000,-0.100000)"
fill="#000000" stroke="none">
<path d="M4397 9299 l-68 -40 32 -57 c56 -100 45 -95 124 -49 39 22 71 41 73
42 5 4 -79 145 -86 145 -4 0 -38 -18 -75 -41z"/>
<path d="M4210 8949 c-202 -40 -336 -250 -286 -449 30 -120 116 -216 233 -260
83 -31 206 -25 286 13 70 35 139 104 175 176 24 50 27 67 27 156 0 87 -3 107
-26 155 -53 110 -147 184 -267 209 -60 12 -78 12 -142 0z m193 -126 c40 -24
43 -36 13 -53 -43 -22 -88 -15 -118 20 -44 49 -38 64 23 57 28 -4 65 -14 82
-24z m-233 -55 c0 -35 -43 -85 -81 -93 -66 -15 -56 40 22 109 45 41 59 37 59
-16z m216 -191 c-4 -34 -11 -66 -15 -70 -11 -11 -78 -26 -113 -27 -24 0 -32 9
-58 61 l-31 61 50 49 49 50 62 -31 62 -32 -6 -61z m160 48 c7 -40 -2 -112 -16
-135 -9 -13 -15 -9 -41 19 -27 29 -30 39 -25 70 5 33 44 81 66 81 5 0 12 -16
16 -35z m-430 -126 c29 -28 38 -65 23 -101 l-12 -29 -29 28 c-33 31 -68 93
-68 119 0 23 56 12 86 -17z m290 -112 l27 -23 -37 -18 c-47 -22 -136 -33 -136
-17 0 37 52 80 97 81 12 0 34 -10 49 -23z"/>
<path d="M4175 7990 l-59 -60 59 -60 c33 -33 62 -59 66 -58 3 2 30 29 59 61
l53 58 -59 60 -59 59 -60 -60z"/>
<path d="M5836 4268 c12 -39 33 -77 66 -113 23 -27 28 -39 19 -48 -20 -20 -12
-34 39 -67 50 -32 88 -35 77 -5 -4 9 -1 12 8 8 28 -10 28 28 0 83 -28 55 -28
55 -48 36 -20 -20 -20 -20 -59 39 -40 60 -72 89 -96 89 -9 0 -11 -7 -6 -22z"/>
<path d="M6196 4172 c-5 -9 33 -96 55 -125 13 -16 14 -16 16 5 1 13 4 34 8 48
11 44 -58 106 -79 72z"/>
<path d="M6437 4112 c-10 -10 -17 -26 -17 -35 0 -21 -9 -21 -31 -1 -16 14 -18
14 -24 -5 -9 -30 0 -52 80 -191 82 -144 95 -176 95 -238 l0 -45 25 23 c30 28
41 79 24 111 -6 13 -33 51 -59 84 -91 115 -111 173 -74 209 41 42 144 -5 144
-65 0 -24 -4 -29 -24 -29 -27 0 -56 24 -56 46 0 8 -7 14 -15 14 -25 0 -17 -40
14 -71 32 -31 86 -40 109 -17 23 23 14 72 -23 115 -19 23 -35 51 -35 63 0 23
-17 24 -61 6 -11 -5 -19 1 -27 19 -14 30 -23 31 -45 7z"/>
<path d="M6133 4063 c-9 -24 8 -44 76 -89 67 -44 141 -112 141 -128 0 -6 -17
6 -37 26 -57 54 -112 88 -145 88 -28 0 -30 -2 -23 -27 3 -16 33 -63 67 -106
41 -54 52 -74 35 -62 -14 9 -45 42 -68 73 -67 89 -101 122 -126 122 -23 0 -29
-14 -17 -45 4 -9 32 -33 64 -55 42 -28 59 -47 63 -68 4 -22 23 -40 70 -73 36
-24 72 -57 81 -72 8 -15 31 -34 50 -42 81 -34 126 -7 126 74 0 42 -5 56 -35
93 -20 24 -55 72 -78 107 -28 43 -52 68 -70 74 -15 5 -50 33 -78 62 -54 57
-86 73 -96 48z"/>
<path d="M5950 3845 c-34 -41 27 -81 83 -53 18 9 41 18 52 20 14 3 1 11 -38
26 -68 26 -81 27 -97 7z"/>
<path d="M6018 3744 c-4 -3 -3 -15 3 -25 8 -16 6 -21 -14 -28 -12 -5 -28 -16
-35 -24 -11 -12 -8 -19 14 -36 21 -17 25 -24 16 -33 -7 -7 -12 -22 -12 -35 0
-18 6 -23 25 -23 15 0 31 -10 41 -26 60 -90 173 -50 127 45 -18 36 -65 63 -80
46 -5 -4 -2 -10 5 -12 24 -9 53 -47 50 -68 -7 -45 -79 -19 -102 37 -17 39 -9
76 21 95 37 24 88 4 164 -65 35 -32 77 -68 93 -80 39 -30 87 -29 123 3 l28 24
-31 1 c-53 0 -95 20 -234 111 -128 83 -186 110 -202 93z"/>
<path d="M6713 3712 c-31 -5 -63 -49 -63 -86 1 -62 37 -114 193 -274 160 -166
189 -209 202 -296 7 -47 8 -48 21 -25 7 13 18 47 25 75 10 42 9 60 -6 110 -18
62 -28 74 -208 239 -51 48 -67 69 -73 99 -9 52 4 71 50 70 36 -1 36 -1 19 18
-45 50 -109 78 -160 70z"/>
<path d="M6620 3455 c0 -4 18 -37 39 -73 21 -37 64 -119 95 -182 69 -144 116
-209 157 -217 23 -4 36 -18 64 -67 50 -90 136 -284 189 -427 42 -114 46 -132
40 -182 -7 -62 -3 -73 64 -155 43 -53 52 -44 52 55 0 84 -11 118 -49 153 -19
17 -45 69 -81 160 -28 74 -89 209 -134 300 -72 146 -81 172 -82 221 0 49 -6
65 -44 123 -23 37 -82 104 -130 149 -85 80 -180 155 -180 142z"/>
<path d="M6455 3411 c-65 -28 -92 -114 -61 -195 26 -67 42 -75 50 -26 11 67
68 80 120 28 24 -24 42 -60 66 -133 55 -170 94 -215 187 -215 71 0 108 21 64
35 -47 15 -98 84 -151 207 -98 223 -198 332 -275 299z"/>
<path d="M6027 3103 c-20 -36 -15 -78 18 -155 6 -16 2 -17 -39 -12 -44 6 -46
6 -46 -18 0 -26 40 -88 79 -122 27 -25 27 -32 -4 -40 -14 -4 -25 -10 -25 -15
0 -18 45 -64 76 -77 48 -20 78 -18 248 17 185 38 246 37 308 -7 83 -58 127
-194 94 -290 -22 -65 -4 -78 23 -15 62 144 -10 316 -156 371 -46 17 -78 20
-214 20 -178 0 -208 7 -252 59 -49 58 -48 132 3 182 40 40 91 40 131 0 49 -49
37 -117 -20 -109 -36 5 -41 -13 -15 -50 27 -38 82 -24 109 28 36 70 0 170 -75
208 -57 28 -89 28 -134 -3 -20 -14 -41 -25 -46 -25 -4 0 -20 14 -33 30 -14 17
-28 27 -30 23z"/>
<path d="M6378 3038 c32 -62 36 -140 9 -182 -22 -33 -3 -36 35 -6 66 51 61
126 -12 194 -27 25 -51 46 -54 46 -3 0 7 -23 22 -52z"/>
<path d="M7131 3003 c-15 -54 -14 -163 3 -209 8 -22 31 -74 51 -118 l37 -78
25 23 c58 55 68 122 29 204 -18 40 -116 198 -131 213 -2 2 -8 -13 -14 -35z"/>
<path d="M6845 2804 c4 -11 27 -73 52 -139 53 -144 67 -159 141 -153 29 3 57
9 63 15 10 10 -37 141 -73 201 -24 40 -88 78 -147 87 -40 7 -43 6 -36 -11z"/>
<path d="M6385 2626 c-61 -19 -107 -50 -94 -63 8 -8 -2 -20 -33 -41 -24 -17
-50 -37 -57 -46 -12 -14 -9 -16 28 -16 22 0 41 -2 41 -5 0 -3 -7 -22 -15 -42
-8 -20 -14 -38 -12 -40 2 -2 21 11 43 28 21 18 68 46 104 63 62 30 70 31 192
31 71 0 128 3 128 7 0 20 -69 81 -122 108 -68 33 -132 39 -203 16z"/>
<path d="M7349 2613 c-15 -15 -35 -41 -45 -58 -16 -25 -17 -28 -3 -23 10 4 35
12 58 19 44 13 47 19 28 62 l-12 28 -26 -28z"/>
<path d="M7375 2443 c-49 -11 -85 -25 -85 -34 0 -5 6 -9 14 -9 20 0 63 -54 71
-90 8 -38 20 -38 53 0 25 28 27 29 46 12 18 -16 19 -16 13 1 -4 10 -14 42 -23
72 -16 58 -25 63 -89 48z"/>
<path d="M6991 2414 c-60 -21 -117 -58 -169 -108 -53 -50 -91 -108 -75 -113 8
-3 6 -19 -8 -49 -10 -25 -19 -48 -19 -51 0 -3 16 4 36 16 19 12 37 21 38 21 2
0 7 -12 11 -27 6 -27 8 -26 37 32 16 33 48 83 70 112 33 44 65 74 183 175 16
14 -58 8 -104 -8z"/>
<path d="M7133 2311 c-83 -66 -130 -153 -117 -213 10 -48 29 -53 58 -15 14 19
26 45 26 59 0 27 20 38 69 38 18 0 22 4 16 18 -14 33 -17 109 -6 131 16 29 11
27 -46 -18z"/>
<path d="M7383 2216 c15 -38 58 -95 77 -101 23 -7 70 18 70 38 0 20 -13 31
-63 55 -55 26 -92 29 -84 8z"/>
<path d="M7176 2108 c-13 -24 -27 -53 -31 -66 -3 -12 -15 -27 -26 -33 -27 -14
-14 -29 25 -29 55 0 90 62 78 138 -6 43 -16 40 -46 -10z"/>
<path d="M7372 2097 c3 -26 14 -57 23 -67 23 -25 67 -26 88 -2 21 23 21 32 2
32 -8 0 -29 12 -47 28 -75 63 -72 63 -66 9z"/>
<path d="M7250 2049 c0 -33 -5 -69 -11 -81 -15 -27 -5 -33 32 -18 37 16 51 48
39 91 -10 33 -37 69 -52 69 -4 0 -8 -27 -8 -61z"/>
<path d="M7353 1964 c2 -25 9 -50 15 -56 17 -17 52 1 52 26 0 29 -36 76 -57
76 -13 0 -15 -9 -10 -46z"/>
<path d="M6599 1663 c-5 -15 -11 -57 -12 -94 -2 -67 -2 -68 -29 -62 -26 5 -26
4 -21 -36 5 -35 2 -46 -18 -67 -13 -14 -28 -37 -34 -52 -11 -26 -11 -26 -30
26 -11 29 -27 60 -37 69 -16 14 -18 14 -24 0 -5 -15 -8 -15 -27 -2 -31 22 -47
18 -47 -9 0 -18 -6 -26 -22 -28 -19 -3 -22 -10 -25 -79 -3 -65 -1 -78 16 -93
19 -17 22 -18 46 -2 36 23 49 103 19 113 -7 2 -10 -5 -7 -20 5 -27 -19 -52
-42 -43 -38 14 4 106 49 106 31 0 56 -30 56 -68 0 -17 -5 -65 -11 -107 -11
-71 -10 -79 8 -103 16 -22 36 -30 99 -43 118 -25 120 -23 190 156 33 83 94 99
119 31 11 -31 -11 -81 -35 -81 -19 0 -25 41 -10 60 7 9 8 15 1 19 -11 7 -35
-25 -46 -62 -8 -27 18 -72 41 -72 23 0 61 47 68 85 4 19 14 39 24 45 15 9 15
11 -7 28 -20 16 -22 22 -12 41 10 17 9 22 -4 27 -8 4 -24 4 -35 1 -15 -4 -20
0 -20 14 0 10 -3 19 -6 19 -15 0 -75 -43 -95 -68 l-22 -27 7 38 c5 26 2 44 -8
59 -13 18 -13 25 -1 56 20 46 19 59 -4 65 -18 4 -19 11 -14 60 6 62 -3 127
-18 127 -5 0 -14 -12 -20 -27z"/>
<path d="M5966 1289 l-35 -30 -7 25 c-3 14 -12 26 -19 26 -17 0 -52 -48 -60
-83 -8 -29 -15 -33 -32 -16 -17 17 -31 3 -39 -35 -9 -49 -2 -62 86 -183 82
-111 97 -148 85 -203 -14 -65 -105 -140 -170 -140 -16 0 -25 -6 -25 -15 0 -23
47 -18 110 11 96 44 140 100 140 177 0 35 -10 61 -51 128 -88 145 -95 190 -38
245 52 50 139 28 139 -36 0 -28 -32 -70 -54 -70 -19 0 -39 27 -31 41 6 8 2 8
-14 -1 -36 -18 -24 -61 21 -83 51 -25 93 -15 119 26 36 61 17 142 -42 173 -20
10 -29 20 -25 30 3 8 9 21 12 29 11 27 -33 17 -70 -16z"/>
<path d="M6231 1064 c-37 -31 -40 -47 -7 -38 23 5 56 -16 56 -37 0 -28 -36
-72 -98 -117 -98 -73 -115 -125 -67 -196 25 -37 25 -38 6 -64 -19 -27 -90 -96
-165 -160 -21 -18 -36 -35 -34 -38 3 -2 18 -6 34 -10 27 -5 39 4 134 94 l106
100 71 -5 c62 -5 76 -3 107 17 41 25 75 79 101 159 30 92 96 142 121 92 l12
-23 12 21 c16 31 17 96 1 115 -7 9 -28 16 -46 16 -40 0 -84 -40 -120 -109 -13
-25 -44 -68 -69 -96 l-46 -50 30 61 c17 33 39 87 50 120 l19 59 -57 -61 c-147
-157 -165 -149 -44 20 65 91 51 156 -34 156 -31 0 -51 -7 -73 -26z"/>
<path d="M5686 1006 c5 -21 2 -25 -22 -28 l-28 -3 41 -27 c50 -33 99 -101 120
-166 8 -26 17 -54 20 -62 7 -21 40 45 48 96 5 27 2 53 -10 80 -18 44 -73 106
-87 98 -4 -3 -23 4 -42 15 -43 27 -48 26 -40 -3z"/>
<path d="M6937 852 c-16 -29 -22 -33 -44 -27 -61 15 -80 16 -118 3 -96 -32
-119 -208 -27 -208 24 0 62 32 62 52 0 9 -3 9 -12 0 -34 -34 -60 12 -32 56 25
39 45 51 82 52 58 0 61 -61 6 -143 -46 -70 -115 -88 -299 -77 -81 5 -155 -32
-250 -124 -81 -79 -74 -100 12 -30 72 59 148 94 205 96 24 1 93 -2 153 -7 124
-9 152 -1 207 58 32 36 35 47 12 47 -12 0 -8 9 15 35 31 36 71 106 71 125 0 6
-11 3 -25 -6 -29 -19 -30 -17 -9 35 8 22 14 52 12 68 l-3 28 -18 -33z"/>
<path d="M5975 688 c-76 -60 -115 -100 -115 -117 0 -9 9 -31 20 -49 l20 -33
56 47 c63 54 84 88 84 136 0 57 -11 59 -65 16z"/>
<path d="M5606 603 c-38 -4 -38 -5 -17 -20 16 -11 19 -18 12 -27 -14 -17 -4
-26 30 -26 41 0 115 -27 182 -66 61 -36 73 -29 35 23 -44 59 -146 125 -188
121 -8 -1 -32 -3 -54 -5z"/>
<path d="M6240 517 c-49 -18 -59 -25 -124 -83 l-57 -51 32 -7 c81 -16 104 -9
154 46 25 28 55 64 66 80 l20 28 -28 0 c-15 -1 -44 -7 -63 -13z"/>
<path d="M6515 435 c-28 -7 -75 -25 -105 -39 l-55 -26 80 5 c92 6 245 34 245
45 0 11 -58 30 -89 29 -14 0 -49 -6 -76 -14z"/>
</g>
</svg>
